<?xml version="1.0" encoding="UTF-8" standalone="no"?>
<!-- Created with Inkscape (http://www.inkscape.org/) -->

<svg
   xmlns:dc="http://purl.org/dc/elements/1.1/"
   xmlns:cc="http://creativecommons.org/ns#"
   xmlns:rdf="http://www.w3.org/1999/02/22-rdf-syntax-ns#"
   xmlns:svg="http://www.w3.org/2000/svg"
   xmlns="http://www.w3.org/2000/svg"
   xmlns:sodipodi="http://sodipodi.sourceforge.net/DTD/sodipodi-0.dtd"
   xmlns:inkscape="http://www.inkscape.org/namespaces/inkscape"
   width="63.382965mm"
   height="21.000004mm"
   viewBox="0 0 63.382965 21.000004"
   version="1.1"
   id="svg8"
   inkscape:version="0.92.4 (5da689c313, 2019-01-14)"
   sodipodi:docname="Aliena.svg">
  <defs
     id="defs2" />
  <sodipodi:namedview
     id="base"
     pagecolor="#ffffff"
     bordercolor="#666666"
     borderopacity="1.0"
     inkscape:pageopacity="0.0"
     inkscape:pageshadow="2"
     inkscape:zoom="0.98994949"
     inkscape:cx="216.49045"
     inkscape:cy="-42.504872"
     inkscape:document-units="mm"
     inkscape:current-layer="layer1"
     showgrid="false"
     fit-margin-top="0"
     fit-margin-left="0"
     fit-margin-right="0"
     fit-margin-bottom="0"
     inkscape:window-width="1708"
     inkscape:window-height="881"
     inkscape:window-x="2391"
     inkscape:window-y="-9"
     inkscape:window-maximized="1" />
  <metadata
     id="metadata5">
    <rdf:RDF>
      <cc:Work
         rdf:about="">
        <dc:format>image/svg+xml</dc:format>
        <dc:type
           rdf:resource="http://purl.org/dc/dcmitype/StillImage" />
        <dc:title></dc:title>
      </cc:Work>
    </rdf:RDF>
  </metadata>
  <g
     inkscape:label="Layer 1"
     inkscape:groupmode="layer"
     id="layer1"
     transform="translate(-26.853768,-170.73948)">
    <g
       id="g1402"
       transform="translate(-10.898468,-2.5417421e-6)">
      <g
         aria-label="Aleena"
         transform="scale(1.0008765,0.99912427)"
         style="font-style:normal;font-variant:normal;font-weight:normal;font-stretch:normal;font-size:9.34229851px;line-height:1.25;font-family:Haettenschweiler;-inkscape-font-specification:Haettenschweiler;letter-spacing:0px;word-spacing:0px;fill:#000000;fill-opacity:1;stroke:none;stroke-width:0.30000001;stroke-miterlimit:4;stroke-dasharray:none;stroke-opacity:1"
         id="text817-9-4">
        <path
           d="m 39.56387,189.13517 c -0.08602,-0.19116 -0.06691,-0.64039 -0.09558,-1.07051 -0.01912,-0.36321 -0.02867,-0.71686 -0.02867,-1.07052 0,-1.04184 0.105139,-2.06456 0.401442,-3.06817 0.143373,-0.46835 0.31542,-0.88891 0.602165,-1.27123 0.200721,-0.24852 0.411001,-0.43012 0.535257,-0.46835 -0.420559,2.31307 -0.67863,4.7982 -1.414608,6.94878 z m 5.515061,-7.56051 -1.548423,-0.26763 c -0.200721,-0.0382 -0.420559,-0.0669 -0.62128,-0.0956 -0.286745,-0.0478 -0.286745,-0.0478 -0.286745,-0.14337 0,-0.0574 0.0096,-0.13381 0.02867,-0.24851 0.114698,-0.57349 0.229396,-1.1661 0.36321,-1.73003 0.31542,-1.40505 0.67863,-2.78143 1.175655,-4.11957 0.315419,-0.87935 0.716862,-1.71091 1.223445,-2.49468 l 0.07647,-0.13381 c 0,0.16248 0.01912,0.411 0.01912,0.65951 v 0.13381 c -0.03823,1.96899 -0.152931,3.92841 -0.296303,5.88783 -0.04779,0.71687 -0.07647,1.44329 -0.114698,2.16971 l 0.0096,0.1816 c 0,0.0956 -0.0096,0.18161 -0.02867,0.20072 z m 2.131471,10.33238 c 0.46835,0 0.955817,-0.27719 1.185213,-0.75509 0.200721,-0.39189 0.324977,-0.82201 0.420559,-1.24257 0.506583,-2.13147 1.003607,-4.26294 1.644004,-6.35618 l 0.344094,-1.10874 c 0.01912,-0.0669 0.02867,-0.12426 0.02867,-0.18161 0,-0.15293 -0.133814,-0.26763 -0.334536,-0.26763 l -0.114698,0.01 c -0.181605,0.0287 -0.324978,0.14337 -0.382327,0.28675 l -0.181605,0.44923 c -0.716862,2.06456 -1.376376,4.13869 -1.930749,6.24148 -0.152931,0.59261 -0.31542,1.1661 -0.544816,1.59622 -0.0096,-0.01 -0.02867,-0.15294 -0.06691,-0.31542 -0.277187,-0.9845 -0.411001,-2.00722 -0.477908,-3.02038 -0.04779,-0.82201 -0.07647,-1.62489 -0.07647,-2.43734 0,-0.53525 0.0096,-1.08007 0.03823,-1.62488 0.01912,-0.3441 0.01912,-0.38233 0.08602,-0.38233 h 0.372768 c 0.21028,0 0.449234,-0.01 0.669072,-0.10514 0.08602,-0.0478 0.21028,-0.12426 0.219838,-0.23896 v -0.0382 c 0,-0.14337 -0.152931,-0.22939 -0.248513,-0.25807 -0.191163,-0.0574 -0.391884,-0.1147 -0.583048,-0.14337 -0.487466,-0.0765 -0.487466,-0.0765 -0.487466,-0.2963 l 0.01912,-0.33454 c 0.08602,-1.30947 0.172047,-2.63805 0.238954,-3.95708 0.06691,-1.25212 0.124256,-2.5138 0.162489,-3.76592 l 0.0096,-0.43012 c 0,-0.48746 -0.03823,-0.97493 -0.15293,-1.46239 -0.114698,-0.43012 -0.401443,-0.7551 -0.869793,-0.84112 -0.114698,-0.0191 -0.248513,-0.0382 -0.363211,-0.0382 -0.382326,0 -0.755095,0.15294 -1.032282,0.48747 -0.286745,0.35365 -0.544815,0.73598 -0.783769,1.11831 -0.841119,1.40505 -1.395492,2.92479 -1.835168,4.48278 -0.344094,1.25212 -0.621281,2.54247 -0.879351,3.8137 -0.04779,0.2294 -0.06691,0.3441 -0.277187,0.36321 -1.395492,0.10514 -2.274843,0.91759 -2.733635,2.16015 -0.344094,0.90803 -0.497025,1.85428 -0.544816,2.81966 -0.01912,0.35365 -0.02867,0.71686 -0.02867,1.07051 0,1.08008 0.10514,2.16015 0.401443,3.21155 0.210279,0.72642 0.516141,0.99405 1.213887,0.99405 l 0.219838,-0.01 c 0.391884,-0.0287 0.745536,-0.20072 0.917583,-0.58305 0.08602,-0.18161 0.191164,-0.37277 0.267629,-0.56393 0.525699,-1.37638 0.774211,-2.80054 1.022724,-4.23427 l 0.640397,-3.76592 c 0.02867,-0.17204 0.03823,-0.1816 0.09558,-0.1816 0.02867,0 0.04779,0 0.08602,0.01 0.611723,0.11469 1.213887,0.20072 1.806493,0.32497 0.277187,0.0574 0.535258,0.0191 0.649956,0.17205 0.02867,0.0382 0.03823,0.086 0.03823,0.14337 0,0.13382 -0.06691,0.30586 -0.06691,0.47791 l -0.0096,1.73003 c 0,0.80289 0.01912,1.60577 0.07646,2.41822 0.06691,0.77421 0.143373,1.53886 0.305861,2.30351 0.133815,0.65952 0.344094,1.30947 0.841119,1.82561 0.267629,0.28675 0.640397,0.43012 0.984491,0.43012 z"
           style="font-style:normal;font-variant:normal;font-weight:normal;font-stretch:normal;font-size:9.55816555px;font-family:'hello bella bold';-inkscape-font-specification:'hello bella bold, ';stroke:none;stroke-width:0.30000001;stroke-miterlimit:4;stroke-dasharray:none;stroke-opacity:1"
           id="path2656"
           inkscape:connector-curvature="0" />
        <path
           d="m 51.118497,181.07764 v -0.16249 c 0,-1.7587 0.114698,-3.49829 0.57349,-5.19964 0.200722,-0.7551 0.497025,-1.2808 0.822002,-1.60577 0.229396,0.2963 0.334536,0.75509 0.353653,1.21388 0.0096,0.17205 0.01912,0.3441 0.01912,0.51614 0,1.61533 -0.372769,3.13508 -1.204329,4.54013 -0.133814,0.21028 -0.305861,0.411 -0.458792,0.61173 z m 0.497025,7.53183 c 0.401443,0 0.83156,-0.1816 1.108747,-0.5257 0.162489,-0.1816 0.296303,-0.39188 0.401443,-0.63083 0.248512,-0.61173 0.516141,-1.21389 0.755095,-1.82561 0.401443,-1.04184 0.822002,-2.07413 1.127864,-3.14464 0.01912,-0.0669 0.03823,-0.13382 0.03823,-0.19116 0,-0.18161 -0.172047,-0.28675 -0.382326,-0.28675 h -0.06691 c -0.277186,0.01 -0.391884,0.20072 -0.449233,0.36321 l -0.477909,1.21389 c -0.458792,1.12786 -0.860234,2.29396 -1.452841,3.35491 -0.10514,0.20073 -0.191163,0.38233 -0.267628,0.43968 -0.01912,-0.0287 -0.07647,-0.13381 -0.114698,-0.24851 -0.535258,-1.51019 -0.649956,-3.08729 -0.726421,-4.6835 v -0.0287 c 0,-0.14337 0.05735,-0.21028 0.191163,-0.28674 0.669072,-0.45879 1.14698,-1.09919 1.538865,-1.77782 0.793328,-1.38594 1.166096,-2.91524 1.290352,-4.48278 0.01912,-0.18161 0.02867,-0.35365 0.02867,-0.5257 0,-0.45879 -0.06691,-0.92714 -0.238954,-1.36682 -0.124256,-0.2963 -0.296303,-0.60216 -0.630839,-0.75509 -0.248513,-0.1147 -0.57349,-0.18161 -0.879351,-0.18161 -0.477909,0 -1.003608,0.16249 -1.347702,0.5257 -0.401443,0.42056 -0.688188,0.92714 -0.888909,1.45284 -0.391885,1.01317 -0.535257,2.07412 -0.649955,3.13508 -0.10514,0.96537 -0.124257,1.93075 -0.124257,2.89612 v 1.35726 c 0,1.32859 0.172047,2.64762 0.449234,3.93797 0.114698,0.56393 0.248513,1.12786 0.563932,1.61533 0.267629,0.42056 0.745537,0.64995 1.204329,0.64995 z"
           style="font-style:normal;font-variant:normal;font-weight:normal;font-stretch:normal;font-size:9.55816555px;font-family:'hello bella bold';-inkscape-font-specification:'hello bella bold, ';stroke:none;stroke-width:0.30000001;stroke-miterlimit:4;stroke-dasharray:none;stroke-opacity:1"
           id="path2658"
           inkscape:connector-curvature="0" />
        <path
           d="m 55.443118,183.3716 c 0.06691,-0.51614 0.305862,-1.11831 0.5257,-1.55798 0.0096,-0.0191 0.01912,-0.0287 0.02867,-0.0287 0,0 0.0096,0.01 0.0096,0.0191 0.0096,0.0669 0.03823,0.21984 0.03823,0.38233 0,0.50658 -0.286745,1.0036 -0.602165,1.18521 z m 0.296304,4.07178 c 0.401443,0 0.822002,-0.0956 1.204328,-0.30586 0.621281,-0.33454 1.080073,-0.83156 1.424167,-1.41461 0.583048,-0.98449 1.156538,-1.97854 1.730028,-2.96303 0.04779,-0.0765 0.10514,-0.18161 0.143373,-0.26763 0.02867,-0.0765 0.04779,-0.15293 0.04779,-0.21984 0,-0.15293 -0.15293,-0.26763 -0.36321,-0.26763 h -0.08602 c -0.31542,0.0287 -0.430118,0.24851 -0.5257,0.411 -0.477908,0.76466 -0.9367,1.53887 -1.433724,2.29396 -0.449234,0.67863 -0.955817,1.29035 -1.663121,1.72047 -0.162489,0.0956 -0.238954,0.13382 -0.305861,0.13382 -0.05735,0 -0.10514,-0.0574 -0.238955,-0.28675 -0.277186,-0.49702 -0.353652,-1.06096 -0.36321,-1.644 0,-0.33454 0,-0.26763 0.229396,-0.28675 0.735979,-0.0765 1.223445,-0.50658 1.519748,-1.09919 0.238955,-0.49702 0.382327,-1.04184 0.382327,-1.59621 l -0.0096,-0.1147 c -0.01912,-0.74554 -0.611723,-1.29035 -1.319027,-1.29035 -0.133814,0 -0.277187,0.0191 -0.420559,0.0669 -0.602165,0.1816 -1.003608,0.5926 -1.280794,1.09918 -0.516141,0.96538 -0.812445,1.9881 -0.812445,3.19243 v 0.19117 c 0,0.38232 0.06691,0.84111 0.219838,1.29035 0.219838,0.64995 0.640397,1.18521 1.385934,1.30947 0.172047,0.0287 0.353652,0.0478 0.535258,0.0478 z"
           style="font-style:normal;font-variant:normal;font-weight:normal;font-stretch:normal;font-size:9.55816555px;font-family:'hello bella bold';-inkscape-font-specification:'hello bella bold, ';stroke:none;stroke-width:0.30000001;stroke-miterlimit:4;stroke-dasharray:none;stroke-opacity:1"
           id="path2660"
           inkscape:connector-curvature="0" />
        <path
           d="m 60.707576,183.3716 c 0.06691,-0.51614 0.305861,-1.11831 0.525699,-1.55798 0.0096,-0.0191 0.01912,-0.0287 0.02867,-0.0287 0,0 0.0096,0.01 0.0096,0.0191 0.0096,0.0669 0.03823,0.21984 0.03823,0.38233 0,0.50658 -0.286745,1.0036 -0.602165,1.18521 z m 0.296303,4.07178 c 0.401443,0 0.822003,-0.0956 1.204329,-0.30586 0.621281,-0.33454 1.080073,-0.83156 1.424167,-1.41461 0.583048,-0.98449 1.156538,-1.97854 1.730028,-2.96303 0.04779,-0.0765 0.10514,-0.18161 0.143372,-0.26763 0.02868,-0.0765 0.04779,-0.15293 0.04779,-0.21984 0,-0.15293 -0.152931,-0.26763 -0.36321,-0.26763 h -0.08602 c -0.315419,0.0287 -0.430117,0.24851 -0.525699,0.411 -0.477908,0.76466 -0.9367,1.53887 -1.433725,2.29396 -0.449233,0.67863 -0.955816,1.29035 -1.66312,1.72047 -0.162489,0.0956 -0.238955,0.13382 -0.305862,0.13382 -0.05735,0 -0.10514,-0.0574 -0.238954,-0.28675 -0.277187,-0.49702 -0.353652,-1.06096 -0.36321,-1.644 0,-0.33454 0,-0.26763 0.229396,-0.28675 0.735979,-0.0765 1.223445,-0.50658 1.519748,-1.09919 0.238954,-0.49702 0.382327,-1.04184 0.382327,-1.59621 l -0.0096,-0.1147 c -0.01912,-0.74554 -0.611723,-1.29035 -1.319027,-1.29035 -0.133815,0 -0.277187,0.0191 -0.42056,0.0669 -0.602164,0.1816 -1.003607,0.5926 -1.280794,1.09918 -0.516141,0.96538 -0.812444,1.9881 -0.812444,3.19243 v 0.19117 c 0,0.38232 0.06691,0.84111 0.219838,1.29035 0.219838,0.64995 0.640397,1.18521 1.385934,1.30947 0.172047,0.0287 0.353652,0.0478 0.535257,0.0478 z"
           style="font-style:normal;font-variant:normal;font-weight:normal;font-stretch:normal;font-size:9.55816555px;font-family:'hello bella bold';-inkscape-font-specification:'hello bella bold, ';stroke:none;stroke-width:0.30000001;stroke-miterlimit:4;stroke-dasharray:none;stroke-opacity:1"
           id="path2662"
           inkscape:connector-curvature="0" />
        <path
           d="m 69.23137,188.62859 c 0.430118,0 0.879351,-0.20072 1.166096,-0.59261 0.229396,-0.30586 0.391885,-0.65951 0.544816,-0.99405 0.525699,-1.33814 1.070514,-2.6954 1.548423,-4.07177 l 0.172047,-0.55438 0.01912,-0.10514 c 0,-0.1816 -0.172047,-0.27718 -0.334536,-0.30586 h -0.07646 c -0.277187,0 -0.439676,0.18161 -0.516141,0.39189 -0.305861,0.80288 -0.621281,1.58665 -0.9367,2.38954 -0.31542,0.77421 -0.611723,1.54842 -1.04184,2.26528 -0.124257,0.20072 -0.219838,0.39189 -0.267629,0.42056 -0.08602,-0.33453 -0.152931,-0.81244 -0.152931,-1.29035 l 0.0096,-0.38233 c 0.07646,-1.07051 0.191163,-2.14103 0.296303,-3.21154 l 0.01912,-0.37277 c 0,-0.30586 -0.03823,-0.61172 -0.09558,-0.90803 -0.105139,-0.4779 -0.420559,-0.83156 -0.917584,-0.98449 -0.200721,-0.0669 -0.401443,-0.0956 -0.583048,-0.0956 -0.487466,0 -0.946258,0.21984 -1.309468,0.61172 -0.363211,0.39189 -0.621281,0.85068 -0.860235,1.30947 h -0.03823 l -0.04779,-0.43011 c -0.02867,-0.2294 -0.143372,-0.4588 -0.420559,-0.55438 -0.09558,-0.0382 -0.200721,-0.0478 -0.286745,-0.0478 -0.324978,0 -0.602164,0.21028 -0.707304,0.5257 -0.172047,0.45879 -0.200722,0.92714 -0.238954,1.38593 -0.02867,0.36321 -0.04779,0.71687 -0.04779,1.07052 0,0.63084 0.05735,1.27124 0.210279,1.89252 0.03823,0.13381 0.08602,0.28674 0.162489,0.42056 0.133815,0.20072 0.401443,0.31541 0.659514,0.31541 0.08602,0 0.181605,-0.01 0.277186,-0.0287 0.334536,-0.0765 0.382327,-0.32498 0.401443,-0.56393 0.0096,-0.21028 0.04779,-0.43968 0.08602,-0.65951 0.267629,-1.43373 0.764653,-2.76231 1.644004,-3.94753 0.114698,-0.17204 0.200722,-0.31542 0.286745,-0.33453 0.06691,0.0669 0.04779,0.21983 0.06691,0.40144 0.01912,0.16249 0.01912,0.33454 0.01912,0.49702 0,0.4588 -0.03823,0.90803 -0.08602,1.36682 -0.08602,0.99405 -0.25807,1.97854 -0.25807,2.99171 0.0096,0.51614 0.133814,1.01316 0.391885,1.4624 0.277186,0.46835 0.774211,0.71686 1.242561,0.71686 z"
           style="font-style:normal;font-variant:normal;font-weight:normal;font-stretch:normal;font-size:9.55816555px;font-family:'hello bella bold';-inkscape-font-specification:'hello bella bold, ';stroke:none;stroke-width:0.30000001;stroke-miterlimit:4;stroke-dasharray:none;stroke-opacity:1"
           id="path2664"
           inkscape:connector-curvature="0" />
        <path
           d="m 72.998632,185.14942 c 0,-0.01 -0.01912,-0.24851 -0.01912,-0.47791 0,-0.21028 0.0096,-0.42056 0.02867,-0.63084 0.04779,-0.87935 0.238954,-1.72047 0.611722,-2.52336 0.08602,-0.17204 0.143373,-0.35365 0.248513,-0.36321 h 0.01912 c 0.10514,0 0.152931,0.19117 0.258071,0.37277 0.04779,0.086 0.07646,0.19117 0.133814,0.29631 0.10514,0.24851 0.162489,0.4779 0.162489,0.7073 0,0.25807 -0.07647,0.51614 -0.277187,0.78377 -0.449234,0.64995 -0.774212,1.37638 -1.166096,1.83517 z m 2.848333,3.4505 c 0.401443,0 0.83156,-0.18161 1.108747,-0.5257 0.152931,-0.19117 0.296303,-0.40145 0.391885,-0.6404 0.248512,-0.60217 0.516141,-1.21389 0.755095,-1.82561 0.401443,-1.03228 0.822002,-2.07412 1.14698,-3.14464 0.0096,-0.0669 0.01912,-0.12425 0.01912,-0.1816 0,-0.17205 -0.15293,-0.28675 -0.372768,-0.28675 h -0.08602 c -0.267628,0.01 -0.372768,0.20072 -0.439675,0.36321 l -0.669072,1.71091 c -0.411001,0.99405 -0.755095,2.01678 -1.309469,2.94392 -0.124256,0.21984 -0.238954,0.44923 -0.334535,0.50658 -0.01912,-0.0191 -0.02867,-0.13381 -0.04779,-0.24851 -0.08602,-0.49702 -0.124256,-0.99405 -0.124256,-1.49107 0,-0.64996 0.06691,-1.29991 0.181605,-1.94987 0.133814,-0.73598 0.305861,-1.44328 0.46835,-2.16014 0.0096,-0.0574 0.01912,-0.1147 0.01912,-0.16249 0,-0.13382 -0.07646,-0.26763 -0.248512,-0.3441 -0.09558,-0.0382 -0.219838,-0.0669 -0.334536,-0.0669 -0.248512,0 -0.544815,0.11469 -0.707304,0.28674 l -0.07647,0.10514 c -0.06691,-0.19116 -0.152931,-0.43968 -0.286745,-0.66907 -0.172047,-0.26763 -0.42056,-0.49703 -0.774212,-0.55438 -0.133814,-0.0191 -0.277187,-0.0287 -0.401443,-0.0287 -0.621281,0 -1.19477,0.24851 -1.596213,0.822 -0.172047,0.25807 -0.31542,0.54482 -0.42056,0.84112 -0.267628,0.78377 -0.401443,1.59621 -0.458792,2.42778 l -0.0096,0.2963 c 0,0.43967 0.05735,0.86979 0.172047,1.30947 0.124256,0.411 0.420559,0.64995 0.841119,0.73598 0.133814,0.0191 0.267628,0.0382 0.391885,0.0382 0.51614,0 0.9367,-0.24851 1.242561,-0.72642 0.10514,-0.16249 0.191163,-0.33454 0.229396,-0.42056 l 0.0096,-0.0191 0.02867,0.51614 c 0.03823,0.65952 0.114698,1.31903 0.487466,1.88296 0.267629,0.43012 0.745537,0.65952 1.204329,0.65952 z"
           style="font-style:normal;font-variant:normal;font-weight:normal;font-stretch:normal;font-size:9.55816555px;font-family:'hello bella bold';-inkscape-font-specification:'hello bella bold, ';stroke:none;stroke-width:0.30000001;stroke-miterlimit:4;stroke-dasharray:none;stroke-opacity:1"
           id="path2666"
           inkscape:connector-curvature="0" />
      </g>
      <path
         inkscape:connector-curvature="0"
         id="path1397"
         d="m 86.435666,188.328 c -0.04801,-0.0777 -0.241619,-0.10243 -0.430292,-0.0551 -0.257105,0.0645 -0.343034,0.0294 -0.343034,-0.14014 0,-0.12444 0.0633,-0.22624 0.140661,-0.22624 0.07736,0 0.140666,-0.12286 0.140666,-0.27303 0,-0.33763 0.254798,-0.51308 0.454757,-0.31313 0.08191,0.0819 0.329579,0.11279 0.550388,0.0686 0.396777,-0.0794 0.559496,0.12192 0.25214,0.31189 -0.08214,0.0508 -0.207168,0.24439 -0.277844,0.43028 -0.13451,0.35379 -0.339323,0.43648 -0.487442,0.19682 z m 1.688267,-2.8083 c -2.817258,-0.60454 -3.960353,-1.14474 -4.58298,-2.16582 -0.321459,-0.52719 -0.357893,-1.62195 -0.07224,-2.17097 0.691932,-1.32986 2.502311,-1.82491 3.96324,-1.08373 0.380589,0.19309 0.73946,0.35133 0.797483,0.35165 0.05803,3.3e-4 0.105493,-0.32756 0.105493,-0.72864 0,-1.76541 1.549861,-3.19694 3.094028,-2.85778 1.013801,0.22267 1.96982,1.68952 1.96982,3.02238 0,0.86903 -0.63093,2.60569 -1.584893,4.36252 -0.851332,1.56781 -0.893507,1.61831 -1.369854,1.64019 -0.270316,0.0125 -1.314357,-0.15399 -2.320092,-0.3698 z m 8.64882,-0.4764 c -1.206684,-0.8095 -1.967361,-1.65656 -1.967361,-2.19081 0,-0.82351 1.114412,-1.25515 2.020524,-0.78258 0.566626,0.29552 0.611553,0.27834 0.936208,-0.35804 0.374976,-0.73502 1.007733,-1.11858 1.846387,-1.11926 0.572359,-4.6e-4 0.707819,0.0613 1.090129,0.49669 0.33828,0.38529 0.43656,0.62861 0.43656,1.08088 0,0.68951 -0.40788,1.59772 -0.94911,2.11335 -0.495283,0.47187 -1.990937,1.3724 -2.279343,1.3724 -0.121432,0 -0.631725,-0.27568 -1.133994,-0.61263 z m -0.773531,-7.29963 c -0.07636,-0.17407 -0.281273,-0.33672 -0.455347,-0.36143 -0.390107,-0.0555 -0.414852,-0.30733 -0.03982,-0.4054 0.152162,-0.0397 0.314671,-0.19211 0.361124,-0.33849 0.101718,-0.32047 0.252741,-0.33801 0.486378,-0.0565 0.110096,0.13266 0.297191,0.17871 0.509535,0.12541 0.241935,-0.0607 0.335566,-0.0253 0.335566,0.12677 0,0.11605 -0.158244,0.25071 -0.35166,0.29926 -0.276718,0.0695 -0.351652,0.17761 -0.351652,0.50757 0,0.49797 -0.293933,0.55914 -0.494129,0.10281 z"
         style="fill:#000000;stroke-width:1" />
    </g>
  </g>
</svg>
